<svg width="85" height="86" viewBox="0 0 85 86" fill="none" xmlns="http://www.w3.org/2000/svg">
<rect width="85" height="86" rx="16" fill="#CBF3E5"/>
<path d="M67.51 38.7892C67.5101 38.6568 67.4845 38.5256 67.4345 38.4033C67.3845 38.2809 67.3111 38.1698 67.2186 38.0761C67.1261 37.9825 67.0162 37.9083 66.8953 37.8577C66.7743 37.8071 66.6447 37.7812 66.5139 37.7814H57.1888L61.2794 33.011C62.2289 33.0821 63.1812 32.9157 64.0521 32.5264C64.9231 32.1371 65.6859 31.5369 66.2734 30.7787C66.8608 30.0206 67.2548 29.1278 67.4206 28.1792C67.5864 27.2306 67.5189 26.2552 67.2241 25.3392C66.9292 24.4232 66.4161 23.5947 65.7299 22.9269C65.0437 22.259 64.2056 21.7722 63.2896 21.5095C62.3735 21.2468 61.4076 21.2163 60.4771 21.4206C59.5466 21.6249 58.6801 22.0577 57.9541 22.681C57.254 23.2773 56.7045 24.034 56.3511 24.8881C55.9977 25.7422 55.8507 26.6693 55.9221 27.5924L44.3176 37.7814H24.1865C24.0557 37.7812 23.9261 37.8071 23.8051 37.8577C23.6842 37.9083 23.5743 37.9825 23.4818 38.0761C23.3893 38.1698 23.3159 38.2809 23.2659 38.4033C23.2159 38.5256 23.1903 38.6568 23.1904 38.7892C23.1944 42.9972 24.367 47.1194 26.5747 50.6856C28.7824 54.2518 31.9362 57.1186 35.6765 58.9589C34.4171 60.8766 33.7465 63.1283 33.749 65.4307C33.749 65.698 33.854 65.9543 34.0408 66.1433C34.2276 66.3323 34.4809 66.4385 34.7451 66.4385H55.9553C56.2195 66.4385 56.4728 66.3323 56.6596 66.1433C56.8464 65.9543 56.9514 65.698 56.9514 65.4307C56.9539 63.1283 56.2832 60.8766 55.0239 58.9589C58.7642 57.1186 61.918 54.2518 64.1257 50.6856C66.3334 47.1194 67.506 42.9972 67.51 38.7892ZM57.6287 28.7631C57.7585 28.649 57.857 28.503 57.9146 28.339C57.9722 28.1751 57.9869 27.9989 57.9574 27.8275C57.8168 27.0203 57.9342 26.1887 58.2925 25.4536C58.6509 24.7185 59.2317 24.1181 59.9503 23.7397C60.669 23.3614 61.4882 23.2247 62.2889 23.3495C63.0896 23.4744 63.8301 23.8543 64.4028 24.4341C64.9755 25.0138 65.3506 25.7632 65.4736 26.5734C65.5965 27.3836 65.461 28.2124 65.0866 28.9393C64.7123 29.6662 64.1186 30.2534 63.3918 30.6156C62.6651 30.9778 61.8431 31.0962 61.0453 30.9534C60.8762 30.9234 60.7022 30.9383 60.5404 30.9966C60.3787 31.0549 60.2346 31.1546 60.1223 31.286L54.5508 37.7814H47.3573L57.6287 28.7631ZM35.7928 64.4229C35.9644 62.7453 36.5671 61.1423 37.541 59.7735C42.5757 61.6897 48.1271 61.6892 53.1614 59.7718C54.135 61.1414 54.7377 62.7448 54.9095 64.4229H35.7928ZM53.7491 57.3396C40.7519 63.3865 25.8981 54.1046 25.206 39.797H65.4947C65.3079 43.5278 64.1143 47.1354 62.0436 50.2282C59.9728 53.3209 57.1041 55.7804 53.7489 57.3396H53.7491Z" fill="#2D6A4F"/>
<path d="M33.0169 35.9858C33.1864 35.9405 33.341 35.8506 33.4649 35.7252C33.5889 35.5998 33.6777 35.4434 33.7224 35.2719C33.9986 34.2242 34.1387 33.1446 34.1391 32.0604C34.1391 23.7785 26.3927 17.8908 18.6167 19.9884C18.4476 20.0345 18.2934 20.1247 18.1696 20.2499C18.0458 20.3752 17.9566 20.5312 17.9111 20.7023C15.8394 28.5523 21.6392 36.4074 29.8443 36.4074C30.9155 36.4077 31.9821 36.266 33.0169 35.9858ZM19.7008 21.7991C27.0137 20.273 33.4374 26.8159 31.9328 34.1751C24.6344 35.7024 18.1942 29.1686 19.7008 21.7991Z" fill="#2D6A4F"/>
<path d="M36.4586 35.9858C38.1556 36.4458 39.9423 36.4458 41.6392 35.9858C43.3362 35.5258 44.8835 34.622 46.1259 33.3653C47.3682 32.1085 48.2617 30.543 48.7165 28.8262C49.1714 27.1094 49.1717 25.3016 48.7172 23.5847C48.6717 23.4136 48.5826 23.2576 48.4588 23.1323C48.3349 23.007 48.1808 22.9169 48.0117 22.8708C46.3145 22.4146 44.5288 22.4165 42.8326 22.8762C41.1364 23.336 39.589 24.2376 38.3446 25.4911H38.3429C37.1041 26.7503 36.2132 28.316 35.7588 30.0321C35.3044 31.7482 35.3024 33.5548 35.7531 35.2719C35.7982 35.4432 35.8873 35.5994 36.0111 35.7247C36.135 35.85 36.2894 35.9401 36.4586 35.9858ZM39.7524 26.9172C40.6785 25.984 41.8155 25.2932 43.0648 24.9046C44.3141 24.5159 45.6383 24.4411 46.9226 24.6865C47.168 25.986 47.0954 27.3264 46.7111 28.591C46.3268 29.8555 45.6425 31.0057 44.7179 31.9411C43.7933 32.8766 42.6565 33.5689 41.4067 33.9577C40.1569 34.3465 38.832 34.42 37.5477 34.1717C37.3057 32.8723 37.38 31.5328 37.7641 30.2689C38.1482 29.0049 38.8306 27.8546 39.7524 26.9172Z" fill="#2D6A4F"/>
</svg>
