<svg width="85" height="85" viewBox="0 0 85 85" fill="none" xmlns="http://www.w3.org/2000/svg">
<path d="M58.051 44.3375C58.7674 43.6195 59.1697 42.6466 59.1697 41.6323C59.1697 40.618 58.7674 39.6452 58.051 38.9272L48.6149 29.4912C47.926 28.8022 47.0001 28.4021 46.0262 28.3726C45.0523 28.3431 44.1039 28.6865 43.3746 29.3325C42.6453 29.9786 42.1901 30.8787 42.1018 31.849C42.0136 32.8193 42.2991 33.7867 42.8999 34.5537L22.0152 55.4384C20.0921 57.3617 20.0839 61.8687 22.8785 64.6633C23.5408 65.3259 24.3271 65.8516 25.1927 66.2102C26.0582 66.5688 26.9859 66.7534 27.9228 66.7534C28.8596 66.7534 29.7874 66.5688 30.6529 66.2102C31.5184 65.8516 32.3048 65.3259 32.9671 64.6633L52.9885 44.6418C53.7233 45.2197 54.6445 45.508 55.5776 45.4519C56.5107 45.3958 57.3908 44.9993 58.051 44.3375ZM31.5591 63.2548C31.0818 63.7326 30.5151 64.1116 29.8912 64.3702C29.2674 64.6288 28.5987 64.7619 27.9233 64.7619C27.248 64.7619 26.5793 64.6288 25.9555 64.3702C25.3316 64.1116 24.7649 63.7326 24.2876 63.2548C22.2728 61.2398 22.2966 57.9755 23.4243 56.8466L31.6106 48.6603L44.5266 50.2856L31.5591 63.2548ZM46.3109 48.503L33.3941 46.8777L44.2877 35.9841L51.5592 43.2555L46.3109 48.503ZM44.6137 33.4928C44.2698 33.1489 44.0767 32.6825 44.0767 32.1962C44.0767 31.7099 44.2699 31.2435 44.6138 30.8996C44.9577 30.5557 45.4241 30.3625 45.9105 30.3625C46.3968 30.3626 46.8632 30.5558 47.2071 30.8997L56.6431 40.3358C56.9869 40.6797 57.1801 41.1461 57.1801 41.6325C57.1801 42.1188 56.9869 42.5852 56.643 42.9291C56.2991 43.2729 55.8327 43.4661 55.3463 43.4661C54.86 43.4661 54.3936 43.2729 54.0497 42.929L44.6137 33.4928Z" fill="#2D6A4F"/>
<path d="M59.0385 49.9129C58.9511 49.7615 58.8253 49.6358 58.6739 49.5484C58.5225 49.4609 58.3507 49.4149 58.1759 49.4149C58.001 49.4149 57.8293 49.4609 57.6778 49.5484C57.5264 49.6358 57.4007 49.7615 57.3132 49.9129L53.7188 56.1385C53.2671 56.9209 53.0293 57.8084 53.0293 58.7118C53.0293 59.6152 53.2671 60.5027 53.7188 61.285C54.1705 62.0674 54.8201 62.7171 55.6025 63.1688C56.3849 63.6205 57.2724 63.8583 58.1758 63.8583C59.0792 63.8583 59.9667 63.6205 60.749 63.1688C61.5314 62.7171 62.1811 62.0674 62.6328 61.285C63.0845 60.5027 63.3223 59.6152 63.3223 58.7118C63.3223 57.8084 63.0844 56.9209 62.6327 56.1385L59.0385 49.9129ZM60.9077 60.2889C60.6308 60.7685 60.2326 61.1667 59.7531 61.4436C59.2736 61.7204 58.7296 61.8662 58.1759 61.8662C57.6221 61.8662 57.0782 61.7204 56.5986 61.4436C56.1191 61.1667 55.7209 60.7685 55.4441 60.2889C55.164 59.8105 55.0164 59.2661 55.0164 58.7118C55.0164 58.1574 55.164 57.613 55.4441 57.1346L58.1757 52.4032L60.9073 57.1346C61.1873 57.613 61.3349 58.1574 61.335 58.7117C61.3351 59.266 61.1876 59.8104 60.9077 60.2889Z" fill="#2D6A4F"/>
<path d="M58.6244 34.3143C59.3321 34.3142 60.0239 34.1043 60.6123 33.7111C61.2008 33.3179 61.6594 32.759 61.9302 32.1052C62.201 31.4513 62.2718 30.7318 62.1337 30.0377C61.9956 29.3436 61.6548 28.706 61.1543 28.2056C60.6539 27.7052 60.0163 27.3644 59.3221 27.2264C58.628 27.0883 57.9085 27.1592 57.2547 27.4301C56.6009 27.701 56.042 28.1596 55.6489 28.7481C55.2557 29.3366 55.0459 30.0284 55.0459 30.7361C55.047 31.6848 55.4244 32.5943 56.0952 33.2651C56.7661 33.9359 57.6757 34.3132 58.6244 34.3143ZM58.6244 29.15C58.9381 29.15 59.2447 29.2431 59.5055 29.4174C59.7663 29.5917 59.9696 29.8394 60.0896 30.1293C60.2096 30.4191 60.241 30.738 60.1798 31.0457C60.1186 31.3533 59.9675 31.6359 59.7457 31.8577C59.5239 32.0795 59.2412 32.2306 58.9336 32.2918C58.6259 32.353 58.307 32.3215 58.0172 32.2015C57.7274 32.0814 57.4797 31.8781 57.3054 31.6173C57.1311 31.3565 57.0381 31.0498 57.0381 30.7361C57.0386 30.3156 57.2059 29.9124 57.5032 29.615C57.8006 29.3177 58.2038 29.1504 58.6244 29.15Z" fill="#2D6A4F"/>
<path d="M60.758 25.403C61.4657 25.403 62.1575 25.1932 62.746 24.8C63.3344 24.4068 63.7931 23.8479 64.0639 23.1941C64.3347 22.5402 64.4056 21.8208 64.2675 21.1266C64.1295 20.4325 63.7887 19.7949 63.2882 19.2945C62.7878 18.7941 62.1502 18.4533 61.4561 18.3152C60.762 18.1771 60.0425 18.248 59.3886 18.5188C58.7348 18.7896 58.1759 19.2483 57.7827 19.8367C57.3896 20.4252 57.1797 21.117 57.1797 21.8247C57.1807 22.7734 57.5581 23.683 58.2289 24.3538C58.8997 25.0246 59.8093 25.402 60.758 25.403ZM60.758 20.2386C61.0717 20.2386 61.3783 20.3316 61.6392 20.5059C61.9 20.6802 62.1033 20.9279 62.2234 21.2178C62.3434 21.5076 62.3748 21.8265 62.3136 22.1342C62.2524 22.4418 62.1014 22.7245 61.8795 22.9463C61.6577 23.1681 61.3751 23.3192 61.0674 23.3804C60.7597 23.4416 60.4408 23.4102 60.151 23.2901C59.8612 23.1701 59.6135 22.9668 59.4392 22.7059C59.2649 22.4451 59.1719 22.1384 59.1719 21.8247C59.1724 21.4042 59.3396 21.0011 59.637 20.7037C59.9343 20.4064 60.3375 20.2391 60.758 20.2386Z" fill="#2D6A4F"/>
</svg>
