<svg width="69" height="68" viewBox="0 0 69 68" fill="none" xmlns="http://www.w3.org/2000/svg">
<path d="M48.349 14.9076H40.9812C40.9023 14.2622 40.5872 13.6676 40.0954 13.2361C39.6035 12.8045 38.9689 12.5657 38.3112 12.5648H30.4892C29.8313 12.5657 29.1965 12.8044 28.7045 13.236C28.2124 13.6675 27.897 14.2621 27.8178 14.9076H20.4514C19.7039 14.9085 18.9872 15.2023 18.4585 15.7247C17.9298 16.247 17.6322 16.9551 17.6309 17.694V52.6489C17.6317 53.3879 17.9292 54.0964 18.458 54.6189C18.9868 55.1414 19.7037 55.4353 20.4514 55.436H48.349C49.0965 55.4353 49.8131 55.1415 50.3417 54.6191C50.8702 54.0967 51.1675 53.3883 51.1682 52.6496V17.694C51.1672 16.9553 50.8698 16.2471 50.3414 15.7248C49.8129 15.2024 49.0964 14.9086 48.349 14.9076ZM29.4102 15.225C29.4104 14.9422 29.5241 14.6711 29.7264 14.4711C29.9288 14.2711 30.2031 14.1587 30.4892 14.1585H38.3112C38.541 14.159 38.7648 14.2318 38.9499 14.3665C39.135 14.5012 39.2718 14.6908 39.3405 14.9076C39.4091 15.1291 39.3889 14.7854 39.3889 19.8601C39.3883 20.1425 39.2746 20.4131 39.0726 20.6127C38.8706 20.8123 38.5968 20.9247 38.3112 20.9253H30.4892C30.258 20.9252 30.0329 20.8517 29.8471 20.7157C29.6613 20.5796 29.5246 20.3882 29.4572 20.1696C29.3924 19.9635 29.4102 20.2805 29.4102 15.225ZM30.4892 22.5191H38.3112C38.9702 22.5185 39.6062 22.279 40.0985 21.846C40.5909 21.413 40.9054 20.8165 40.9825 20.1696H46.0673V50.1746H22.7331V20.1696H27.8165C27.8942 20.8165 28.209 21.4129 28.7016 21.8458C29.1941 22.2788 29.8301 22.5183 30.4892 22.5191ZM49.5557 52.6489C49.5555 52.9651 49.4283 53.2684 49.202 53.492C48.9758 53.7156 48.669 53.8413 48.349 53.8415H20.4514C20.1312 53.8416 19.8241 53.716 19.5976 53.4924C19.3711 53.2687 19.2436 52.9654 19.2434 52.6489V17.694C19.2439 17.3776 19.3713 17.0743 19.5978 16.8507C19.8243 16.6271 20.1313 16.5015 20.4514 16.5013H27.7977V18.5759H21.9268C21.8209 18.5757 21.716 18.5962 21.6181 18.6362C21.5202 18.6762 21.4313 18.7349 21.3564 18.8089C21.2815 18.883 21.2221 18.9709 21.1817 19.0676C21.1412 19.1644 21.1204 19.268 21.1206 19.3727V50.9715C21.1204 51.0762 21.1412 51.1798 21.1817 51.2766C21.2221 51.3733 21.2815 51.4612 21.3564 51.5353C21.4313 51.6093 21.5202 51.668 21.6181 51.708C21.716 51.748 21.8209 51.7685 21.9268 51.7683H46.8735C47.0874 51.7683 47.2924 51.6844 47.4437 51.5349C47.5949 51.3855 47.6798 51.1828 47.6798 50.9715V19.3727C47.6798 19.1614 47.5949 18.9587 47.4437 18.8093C47.2924 18.6598 47.0874 18.5759 46.8735 18.5759H41.0014V16.5013H48.349C48.6689 16.5017 48.9756 16.6275 49.2018 16.8511C49.428 17.0747 49.5552 17.3778 49.5557 17.694V52.6489Z" fill="#2D6A4F"/>
<path d="M27.4069 30.5003C27.4841 30.5852 27.5788 30.6527 27.6846 30.6983C27.7905 30.7438 27.905 30.7664 28.0205 30.7644C28.1359 30.7624 28.2496 30.736 28.3538 30.6868C28.458 30.6376 28.5503 30.5669 28.6244 30.4795L32.0644 26.4227C32.2018 26.2607 32.2684 26.0514 32.2495 25.8408C32.2307 25.6303 32.1281 25.4357 31.9641 25.3C31.8002 25.1643 31.5884 25.0985 31.3754 25.117C31.1624 25.1356 30.9655 25.2371 30.8282 25.3991L27.9854 28.7521L25.8816 26.4385C25.8111 26.3598 25.7255 26.2957 25.6298 26.2498C25.534 26.2039 25.4301 26.1772 25.3239 26.1712C25.2177 26.1652 25.1113 26.18 25.0109 26.2149C24.9105 26.2497 24.8181 26.3038 24.739 26.3741C24.6599 26.4444 24.5956 26.5294 24.5499 26.6244C24.5042 26.7193 24.4779 26.8223 24.4727 26.9273C24.4674 27.0323 24.4832 27.1373 24.5192 27.2363C24.5552 27.3352 24.6106 27.4261 24.6823 27.5038L27.4069 30.5003Z" fill="#2D6A4F"/>
<path d="M30.0865 33.2725H25.8785C25.6647 33.2725 25.4596 33.3564 25.3084 33.5059C25.1572 33.6553 25.0723 33.858 25.0723 34.0693V38.2286C25.0723 38.44 25.1572 38.6427 25.3084 38.7921C25.4596 38.9415 25.6647 39.0255 25.8785 39.0255H30.0865C30.3003 39.0255 30.5054 38.9415 30.6566 38.7921C30.8078 38.6427 30.8927 38.44 30.8927 38.2286V34.0693C30.8927 33.858 30.8078 33.6553 30.6566 33.5059C30.5054 33.3564 30.3003 33.2725 30.0865 33.2725ZM29.2802 37.4317H26.6848V34.8662H29.2802V37.4317Z" fill="#2D6A4F"/>
<path d="M30.0865 41.8149H25.8785C25.6647 41.8149 25.4596 41.8989 25.3084 42.0483C25.1572 42.1978 25.0723 42.4005 25.0723 42.6118V46.771C25.0723 46.9823 25.1572 47.185 25.3084 47.3344C25.4596 47.4839 25.6647 47.5678 25.8785 47.5678H30.0865C30.3003 47.5678 30.5054 47.4839 30.6566 47.3344C30.8078 47.185 30.8927 46.9823 30.8927 46.771V42.6118C30.8927 42.4005 30.8078 42.1978 30.6566 42.0483C30.5054 41.8989 30.3003 41.8149 30.0865 41.8149ZM29.2802 45.9741H26.6848V43.4087H29.2802V45.9741Z" fill="#2D6A4F"/>
<path d="M33.1422 29.7382H43.5186C43.7325 29.7382 43.9375 29.6542 44.0887 29.5048C44.2399 29.3553 44.3249 29.1527 44.3249 28.9413C44.3249 28.73 44.2399 28.5273 44.0887 28.3778C43.9375 28.2284 43.7325 28.1444 43.5186 28.1444H33.1422C32.9284 28.1444 32.7233 28.2284 32.5721 28.3778C32.4209 28.5273 32.3359 28.73 32.3359 28.9413C32.3359 29.1527 32.4209 29.3553 32.5721 29.5048C32.7233 29.6542 32.9284 29.7382 33.1422 29.7382Z" fill="#2D6A4F"/>
<path d="M33.1422 36.9576H43.5186C43.7325 36.9576 43.9375 36.8737 44.0887 36.7242C44.2399 36.5748 44.3249 36.3721 44.3249 36.1607C44.3249 35.9494 44.2399 35.7467 44.0887 35.5973C43.9375 35.4478 43.7325 35.3639 43.5186 35.3639H33.1422C32.9284 35.3639 32.7233 35.4478 32.5721 35.5973C32.4209 35.7467 32.3359 35.9494 32.3359 36.1607C32.3359 36.3721 32.4209 36.5748 32.5721 36.7242C32.7233 36.8737 32.9284 36.9576 33.1422 36.9576Z" fill="#2D6A4F"/>
<path d="M33.1422 45.4883H43.5186C43.7325 45.4883 43.9375 45.4043 44.0887 45.2549C44.2399 45.1054 44.3249 44.9028 44.3249 44.6914C44.3249 44.4801 44.2399 44.2774 44.0887 44.1279C43.9375 43.9785 43.7325 43.8945 43.5186 43.8945H33.1422C32.9284 43.8945 32.7233 43.9785 32.5721 44.1279C32.4209 44.2774 32.3359 44.4801 32.3359 44.6914C32.3359 44.9028 32.4209 45.1054 32.5721 45.2549C32.7233 45.4043 32.9284 45.4883 33.1422 45.4883Z" fill="#2D6A4F"/>
<path d="M31.317 18.3391H37.4831C37.6969 18.3391 37.902 18.2551 38.0532 18.1057C38.2044 17.9562 38.2893 17.7535 38.2893 17.5422C38.2893 17.3308 38.2044 17.1281 38.0532 16.9787C37.902 16.8293 37.6969 16.7453 37.4831 16.7453H31.317C31.1032 16.7453 30.8981 16.8293 30.7469 16.9787C30.5957 17.1281 30.5107 17.3308 30.5107 17.5422C30.5107 17.7535 30.5957 17.9562 30.7469 18.1057C30.8981 18.2551 31.1032 18.3391 31.317 18.3391Z" fill="#2D6A4F"/>
</svg>
