<svg width="86" height="85" viewBox="0 0 86 85" fill="none" xmlns="http://www.w3.org/2000/svg">
<rect width="86" height="85" rx="16" fill="#CBF4E7"/>
<path d="M50.7377 47.8469H46.6619V43.8188C46.6619 43.5546 46.5557 43.3013 46.3667 43.1145C46.1777 42.9277 45.9214 42.8227 45.6541 42.8227H40.3463C40.079 42.8227 39.8226 42.9277 39.6336 43.1145C39.4446 43.3013 39.3385 43.5546 39.3385 43.8188V47.8469H35.2627C34.9954 47.8469 34.7391 47.9518 34.5501 48.1386C34.3611 48.3254 34.2549 48.5788 34.2549 48.8429V54.089C34.2549 54.3532 34.3611 54.6066 34.5501 54.7934C34.7391 54.9802 34.9954 55.0851 35.2627 55.0851H39.3385V59.1132C39.3385 59.3774 39.4446 59.6307 39.6336 59.8175C39.8226 60.0043 40.079 60.1093 40.3463 60.1093H45.6541C45.9214 60.1093 46.1777 60.0043 46.3667 59.8175C46.5557 59.6307 46.6619 59.3774 46.6619 59.1132V55.0858H50.7373C51.0046 55.0858 51.261 54.9809 51.45 54.7941C51.639 54.6072 51.7451 54.3539 51.7451 54.0897V48.8436C51.7452 48.7128 51.7192 48.5832 51.6686 48.4623C51.6181 48.3414 51.5439 48.2315 51.4503 48.139C51.3568 48.0464 51.2457 47.973 51.1234 47.9228C51.0011 47.8727 50.87 47.8469 50.7377 47.8469ZM49.7298 53.0929H45.6541C45.3868 53.0929 45.1305 53.1979 44.9415 53.3847C44.7525 53.5715 44.6463 53.8249 44.6463 54.089V58.1171H41.3541V54.0897C41.3541 53.8255 41.2479 53.5722 41.0589 53.3854C40.8699 53.1986 40.6136 53.0936 40.3463 53.0936H36.2705V49.8397H40.3463C40.6136 49.8397 40.8699 49.7348 41.0589 49.548C41.2479 49.3612 41.3541 49.1078 41.3541 48.8436V44.8149H44.6463V48.8429C44.6463 49.1071 44.7525 49.3605 44.9415 49.5473C45.1305 49.7341 45.3868 49.839 45.6541 49.839H49.7295L49.7298 53.0929Z" fill="#1B4332"/>
<path d="M65.3119 30.1518H55.1559V26.0196C55.154 24.2093 54.4255 22.4737 53.1305 21.1936C51.8354 19.9135 50.0794 19.1934 48.2478 19.1914H38.8698C37.0383 19.1934 35.2824 19.9134 33.9873 21.1934C32.6922 22.4734 31.9638 24.2089 31.9617 26.0191V30.1513H20.6877C19.5046 30.1528 18.3705 30.618 17.534 31.4449C16.6975 32.2718 16.227 33.3928 16.2256 34.5621V61.3979C16.227 62.5672 16.6976 63.6881 17.534 64.515C18.3705 65.3418 19.5046 65.807 20.6877 65.8086H65.3119C66.495 65.807 67.6291 65.3418 68.4656 64.515C69.302 63.6881 69.7726 62.5672 69.774 61.3979V34.5621C69.7725 33.3929 69.3019 32.272 68.4654 31.4452C67.629 30.6185 66.4949 30.1533 65.3119 30.1518ZM33.9774 26.0196C33.9787 24.7375 34.4946 23.5083 35.4118 22.6017C36.329 21.695 37.5726 21.185 38.8698 21.1836H48.2478C49.5449 21.185 50.7885 21.695 51.7057 22.6015C52.6229 23.508 53.1388 24.7371 53.1402 26.0191V30.1513H50.9566V26.0196C50.956 25.3097 50.6704 24.6291 50.1625 24.127C49.6547 23.625 48.9661 23.3426 48.2478 23.3418H38.8698C38.1516 23.3426 37.4631 23.6249 36.9552 24.1268C36.4474 24.6288 36.1618 25.3093 36.161 26.0191V30.1513H33.9774V26.0196ZM48.941 26.0196V30.1518H38.1766V26.0196C38.1768 25.838 38.2499 25.6638 38.3799 25.5354C38.5098 25.407 38.686 25.3347 38.8698 25.3345H48.2478C48.4316 25.3347 48.6078 25.4069 48.7378 25.5354C48.8678 25.6638 48.9408 25.838 48.941 26.0196ZM67.7584 61.3979C67.7578 62.039 67.4998 62.6538 67.0412 63.1072C66.5825 63.5606 65.9606 63.8157 65.3119 63.8164H20.6877C20.039 63.8157 19.4171 63.5606 18.9584 63.1072C18.4998 62.6538 18.2418 62.039 18.2412 61.3979V40.3282H23.594V41.5911C23.5948 42.2922 23.8771 42.9645 24.3788 43.4602C24.8805 43.956 25.5607 44.2347 26.2701 44.2354H31.331C32.0403 44.2346 32.7204 43.9557 33.2219 43.46C33.7235 42.9643 34.0056 42.2921 34.0064 41.5911V40.3282H53.1402V41.5911C53.1411 42.2921 53.4233 42.9643 53.9248 43.46C54.4264 43.9557 55.1065 44.2346 55.8158 44.2354H60.8772C61.5865 44.2346 62.2666 43.9557 62.7681 43.46C63.2697 42.9643 63.5518 42.2921 63.5526 41.5911V40.3282H67.7584V61.3979ZM25.6097 41.5911V40.3282H31.9908V41.5911C31.9906 41.764 31.921 41.9297 31.7974 42.052C31.6737 42.1742 31.5059 42.243 31.331 42.2432H26.2701C26.0951 42.2432 25.9272 42.1745 25.8033 42.0522C25.6795 41.9299 25.6098 41.7641 25.6097 41.5911ZM55.1554 41.5911V40.3282H61.5365V41.5911C61.5363 41.764 61.4667 41.9297 61.3431 42.052C61.2194 42.1742 61.0516 42.243 60.8767 42.2432H55.8158C55.6409 42.243 55.4731 42.1742 55.3494 42.052C55.2257 41.9297 55.1561 41.764 55.1559 41.5911H55.1554ZM67.7584 38.336H18.2412V34.5621C18.242 33.921 18.5 33.3064 18.9586 32.8531C19.4172 32.3998 20.039 32.1447 20.6877 32.1439H65.3119C65.9605 32.1447 66.5824 32.3998 67.041 32.8531C67.4996 33.3064 67.7576 33.921 67.7584 34.5621V38.336Z" fill="#1B4332"/>
</svg>
