<svg width="69" height="69" viewBox="0 0 69 69" fill="none" xmlns="http://www.w3.org/2000/svg">
<path d="M52.7148 21.2179H47.7807V16.2838C47.7807 16.0693 47.6955 15.8636 47.5439 15.712C47.3922 15.5603 47.1866 15.4752 46.9721 15.4752H40.9751C40.7606 15.4752 40.5549 15.5603 40.4033 15.712C40.2517 15.8636 40.1665 16.0693 40.1665 16.2838V21.2179H35.2324C35.018 21.2179 34.8123 21.3031 34.6607 21.4548C34.509 21.6064 34.4238 21.8121 34.4238 22.0265V28.0236C34.4238 28.238 34.509 28.4437 34.6607 28.5954C34.8123 28.747 35.018 28.8322 35.2324 28.8322H40.1665V33.7662C40.1665 33.9807 40.2517 34.1863 40.4033 34.338C40.5549 34.4896 40.7606 34.5748 40.9751 34.5748H46.9721C47.1866 34.5748 47.3922 34.4896 47.5439 34.338C47.6955 34.1863 47.7807 33.9807 47.7807 33.7662V28.8322H52.7148C52.9292 28.8322 53.1349 28.747 53.2865 28.5954C53.4382 28.4437 53.5234 28.238 53.5234 28.0236V22.0265C53.5234 21.8121 53.4382 21.6064 53.2865 21.4548C53.1349 21.3031 52.9292 21.2179 52.7148 21.2179ZM51.9062 27.215H46.9721C46.7577 27.215 46.552 27.3002 46.4004 27.4518C46.2487 27.6035 46.1635 27.8091 46.1635 28.0236V32.9576H41.7836V28.0236C41.7836 27.8091 41.6985 27.6035 41.5468 27.4518C41.3952 27.3002 41.1895 27.215 40.9751 27.215H36.041V22.8351H40.9751C41.1895 22.8351 41.3952 22.7499 41.5468 22.5983C41.6985 22.4466 41.7836 22.241 41.7836 22.0265V17.0923H46.1635V22.0265C46.1635 22.241 46.2487 22.4466 46.4004 22.5983C46.552 22.7499 46.7577 22.8351 46.9721 22.8351H51.9062V27.215Z" fill="#2D6A4F"/>
<path d="M47.0894 38.8422C46.4481 38.2008 45.5927 37.8185 44.687 37.7685C43.7813 37.7186 42.889 38.0045 42.181 38.5715C41.9638 38.7439 42.0689 38.6523 39.2765 41.4439C39.165 41.5546 39.0268 41.6345 38.8752 41.6759C38.7236 41.7174 38.5639 41.7188 38.4116 41.6801C35.7361 40.998 33.2938 39.6077 31.3415 37.6554C29.3891 35.703 27.9988 33.2606 27.3168 30.5851C27.2781 30.4329 27.2796 30.2732 27.321 30.1216C27.3624 29.97 27.4424 29.8318 27.5531 29.7203C30.1708 27.1025 30.2931 26.9912 30.4078 26.8385C30.9836 26.1312 31.2765 25.2353 31.2297 24.3244C31.1829 23.4136 30.7997 22.5524 30.1544 21.9079L24.8002 16.5535C24.4473 16.2012 24.0268 15.9241 23.5638 15.739C23.1009 15.5538 22.6052 15.4645 22.1068 15.4764C21.6083 15.4883 21.1175 15.6011 20.6639 15.8081C20.2103 16.0151 19.8034 16.3119 19.4677 16.6806C19.1899 17.0196 18.931 17.3737 18.6922 17.7412C15.9481 21.8697 14.9314 26.6404 15.7535 31.5966C18.2085 46.4104 37.3925 60.4457 52.0054 49.784C52.4358 49.4704 52.7932 49.0673 53.053 48.6025C53.3129 48.1377 53.469 47.6221 53.5107 47.0912C53.5524 46.5604 53.4787 46.0267 53.2946 45.527C53.1105 45.0274 52.8205 44.5734 52.4444 44.1965L47.0894 38.8422ZM22.0373 17.0986C22.3344 17.0769 22.6327 17.1191 22.9121 17.2224C23.1916 17.3256 23.4456 17.4876 23.6572 17.6972C29.5183 23.5583 29.0406 23.0698 29.1633 23.2226C29.4356 23.5642 29.5931 23.9831 29.6132 24.4195C29.6333 24.8559 29.515 25.2875 29.2752 25.6527C29.1202 25.8876 28.9872 25.9999 28.0438 26.9434L19.92 18.8197C20.4909 17.9445 20.9322 17.1846 22.0373 17.0986ZM17.3486 31.332C16.7017 27.4276 17.2983 23.6489 19.0756 20.2616L26.9006 28.0865L26.4102 28.577C26.1016 28.8872 25.8785 29.272 25.7628 29.694C25.6471 30.116 25.6426 30.5608 25.7498 30.985C26.5036 33.9419 28.0402 36.6412 30.1979 38.799C32.3557 40.9567 35.0549 42.4933 38.0119 43.247C38.4361 43.3543 38.8809 43.3499 39.303 43.2341C39.725 43.1184 40.1098 42.8954 40.42 42.5867L40.9103 42.0963L48.7355 49.9214C35.4263 56.9054 19.4718 44.1447 17.3486 31.332ZM51.8988 46.9601C51.8097 48.107 50.9923 48.5308 50.1783 49.0773L42.0545 40.9535C42.9304 40.0775 43.1505 39.8373 43.3482 39.7201C43.746 39.4597 44.2212 39.344 44.6942 39.3924C45.1672 39.4408 45.6091 39.6503 45.946 39.9859L51.3001 45.3402C51.511 45.5509 51.6738 45.8048 51.7772 46.0845C51.8806 46.3641 51.9221 46.6629 51.8988 46.9601Z" fill="#2D6A4F"/>
</svg>
