<svg width="86" height="86" viewBox="0 0 86 86" fill="none" xmlns="http://www.w3.org/2000/svg">
<rect width="86" height="86" rx="16" fill="#CBF3E5"/>
<path d="M69.9925 56.0527H66.5177C66.8435 55.4608 67.0094 54.7943 66.999 54.1188C66.9886 53.4433 66.8023 52.7822 66.4584 52.2007C66.1145 51.6192 65.625 51.1374 65.0381 50.8028C64.4512 50.4682 63.7872 50.2924 63.1116 50.2927H42.2014C41.3296 50.2919 40.4832 50.5858 39.7994 51.1266C39.399 50.3486 38.792 49.6957 38.0452 49.2397C37.2983 48.7836 36.4404 48.5419 35.5653 48.5411H32.8133C31.9399 48.5404 31.0832 48.78 30.337 49.2336C29.5907 49.6873 28.9836 50.3375 28.5822 51.1131C28.1808 51.8888 28.0006 52.7599 28.0612 53.6311C28.1218 54.5023 28.4209 55.3401 28.9258 56.0527H26.0653V35.6949C26.0664 34.7796 26.4303 33.902 27.0774 33.2547C27.7244 32.6073 28.6018 32.2429 29.5171 32.2414H36.2795C36.4463 33.0788 36.8656 33.845 37.4809 34.437C38.0963 35.0289 38.8782 35.4181 39.7215 35.5523V36.9667C39.7222 37.5684 39.9615 38.1453 40.3869 38.5707C40.8124 38.9962 41.3892 39.2355 41.9909 39.2361H53.141C53.7427 39.2355 54.3196 38.9962 54.7451 38.5707C55.1706 38.1453 55.4099 37.5684 55.4106 36.9667V35.5523C56.2539 35.4181 57.0358 35.0289 57.6512 34.437C58.2666 33.8451 58.686 33.0788 58.8528 32.2414H61.6243C62.8656 32.2402 64.0558 31.7467 64.9337 30.8691C65.8116 29.9915 66.3056 28.8015 66.3073 27.5601V21.2865C66.306 20.0449 65.8122 18.8545 64.9342 17.9766C64.0563 17.0986 62.8659 16.6048 61.6243 16.6035H58.9066C58.7961 15.5813 58.3121 14.6358 57.5473 13.9486C56.7826 13.2613 55.791 12.8807 54.7628 12.8797H40.3695C39.3413 12.8807 38.3497 13.2613 37.585 13.9486C36.8202 14.6358 36.3362 15.5813 36.2257 16.6035H27.6677C24.3093 16.6071 21.0894 17.9427 18.7145 20.3173C16.3395 22.6919 15.0035 25.9116 14.9995 29.2701V72.1122C14.9995 72.3794 15.1057 72.6358 15.2947 72.8248C15.4837 73.0138 15.74 73.12 16.0073 73.12H25.0575C25.3248 73.12 25.5811 73.0138 25.7701 72.8248C25.9591 72.6358 26.0653 72.3794 26.0653 72.1122V63.9578H30.3598V72.1125C30.3598 72.3798 30.4659 72.6361 30.6549 72.8251C30.8439 73.0141 31.1003 73.1203 31.3676 73.1203H63.6817C63.949 73.1203 64.2054 73.0141 64.3944 72.8251C64.5834 72.6361 64.6895 72.3798 64.6895 72.1125V63.9578H69.9925C70.2598 63.9578 70.5161 63.8516 70.7051 63.6626C70.8941 63.4736 71.0003 63.2173 71.0003 62.95V57.0605C71.0003 56.7932 70.8941 56.5368 70.7051 56.3478C70.5161 56.1588 70.2598 56.0527 69.9925 56.0527ZM64.9838 54.1805C64.9832 54.6768 64.7858 55.1527 64.4348 55.5037C64.0839 55.8547 63.608 56.0521 63.1116 56.0527H53.1827C53.4986 55.4792 53.6642 54.8352 53.6642 54.1805C53.6642 53.5258 53.4986 52.8817 53.1827 52.3083H63.1118C63.6081 52.3089 64.084 52.5064 64.4349 52.8574C64.7858 53.2083 64.9832 53.6842 64.9838 54.1805ZM42.2014 52.3083H49.7768C50.2733 52.3083 50.7495 52.5056 51.1006 52.8567C51.4517 53.2078 51.649 53.684 51.649 54.1805C51.649 54.677 51.4517 55.1532 51.1006 55.5043C50.7495 55.8554 50.2733 56.0527 49.7768 56.0527H42.2014C41.7049 56.0527 41.2287 55.8554 40.8776 55.5043C40.5265 55.1532 40.3292 54.677 40.3292 54.1805C40.3292 53.684 40.5265 53.2078 40.8776 52.8567C41.2287 52.5056 41.7049 52.3083 42.2014 52.3083ZM30.0653 53.3049C30.0661 52.5763 30.3559 51.8778 30.871 51.3626C31.3862 50.8474 32.0847 50.5576 32.8133 50.5567H35.5656C35.9265 50.5567 36.2838 50.6278 36.6172 50.7659C36.9506 50.904 37.2535 51.1064 37.5087 51.3616C37.7639 51.6168 37.9663 51.9197 38.1044 52.2531C38.2425 52.5865 38.3136 52.9438 38.3136 53.3047C38.3136 53.6656 38.2425 54.0229 38.1044 54.3563C37.9663 54.6897 37.7639 54.9926 37.5087 55.2478C37.2535 55.503 36.9506 55.7054 36.6172 55.8435C36.2838 55.9816 35.9265 56.0527 35.5656 56.0527H32.8133C32.0847 56.0519 31.3863 55.7621 30.8711 55.247C30.3559 54.7318 30.0661 54.0334 30.0653 53.3049ZM53.141 37.2205H41.9909C41.9236 37.2205 41.8591 37.1937 41.8115 37.1461C41.7639 37.0985 41.7372 37.034 41.7371 36.9667V35.6062H53.395V36.9667C53.3949 37.034 53.3681 37.0986 53.3205 37.1461C53.2729 37.1937 53.2083 37.2205 53.141 37.2205ZM64.2916 21.2865V27.5601C64.2907 28.2671 64.0093 28.9448 63.5093 29.4446C63.0092 29.9444 62.3313 30.2253 61.6243 30.2258H58.9301V18.6192H61.6243C62.3315 18.6197 63.0096 18.9009 63.5097 19.401C64.0098 19.9011 64.2911 20.5793 64.2916 21.2865ZM40.3695 14.8953H54.7628C55.3334 14.8954 55.8806 15.1222 56.2841 15.5257C56.6876 15.9291 56.9143 16.4764 56.9144 17.047C56.9144 32.7868 56.9734 31.7106 56.7582 32.2414C56.5976 32.6393 56.3219 32.9802 55.9664 33.2205C55.6109 33.4607 55.1918 33.5895 54.7628 33.5902H40.3695C39.9404 33.5895 39.5213 33.4607 39.1659 33.2205C38.8104 32.9802 38.5347 32.6393 38.374 32.2414C38.1018 31.5695 38.2098 16.8555 38.2632 16.6035C38.3654 16.1206 38.6304 15.6874 39.0138 15.3764C39.3973 15.0654 39.8758 14.8956 40.3695 14.8953ZM17.0151 71.1043V29.2701C17.0187 26.4461 18.1422 23.7388 20.1392 21.7421C22.1363 19.7454 24.8437 18.6223 27.6677 18.6192H36.2022V30.2258H29.5171C28.0673 30.2277 26.6775 30.8046 25.6525 31.8299C24.6276 32.8551 24.0511 34.2451 24.0497 35.6949V71.1043H17.0151ZM62.6739 71.1043H32.3754V63.9578H62.6739V71.1043ZM68.9847 61.9422H26.0653V58.0683H68.9847V61.9422Z" fill="#2D6A4F"/>
<path d="M42.8258 42.632C42.6369 42.821 42.5308 43.0773 42.5308 43.3445C42.5308 43.6117 42.6369 43.868 42.8258 44.057C43.4483 44.6795 44.1873 45.1733 45.0006 45.5102C45.8138 45.847 46.6855 46.0204 47.5658 46.0204C48.4461 46.0204 49.3178 45.847 50.1311 45.5102C50.9444 45.1733 51.6834 44.6795 52.3058 44.057C52.4923 43.8675 52.5962 43.612 52.5951 43.3461C52.594 43.0802 52.4879 42.8256 52.2999 42.6376C52.1118 42.4496 51.8572 42.3436 51.5913 42.3425C51.3254 42.3415 51.0699 42.4455 50.8804 42.632C50.0013 43.511 48.809 44.0048 47.5657 44.0048C46.3225 44.0048 45.1302 43.511 44.2511 42.632C44.0621 42.443 43.8057 42.3368 43.5384 42.3368C43.2712 42.3368 43.0148 42.443 42.8258 42.632Z" fill="#2D6A4F"/>
<path d="M49.959 41.7098C50.0546 41.6167 50.1308 41.5055 50.1832 41.3827C50.2355 41.2599 50.2629 41.1279 50.2638 40.9944C50.2647 40.8609 50.2391 40.7286 50.1884 40.6051C50.1377 40.4816 50.063 40.3694 49.9686 40.275C49.8742 40.1806 49.762 40.1059 49.6385 40.0552C49.515 40.0046 49.3826 39.9789 49.2491 39.9799C49.1156 39.9808 48.9836 40.0082 48.8608 40.0605C48.738 40.1129 48.6268 40.1891 48.5337 40.2848C48.2769 40.541 47.9289 40.6849 47.5662 40.6849C47.2034 40.6849 46.8554 40.541 46.5986 40.2848C46.4085 40.1012 46.1539 39.9996 45.8897 40.0019C45.6254 40.0042 45.3727 40.1102 45.1858 40.2971C44.999 40.4839 44.893 40.7367 44.8907 41.0009C44.8884 41.2652 44.9899 41.5198 45.1735 41.7098C45.8086 42.3436 46.6691 42.6995 47.5662 42.6995C48.4634 42.6995 49.3239 42.3436 49.959 41.7098Z" fill="#2D6A4F"/>
<path d="M40.4573 45.0005C40.2683 45.1895 40.1621 45.4458 40.1621 45.7131C40.1621 45.9804 40.2683 46.2367 40.4573 46.4257C42.3426 48.311 44.8996 49.3702 47.5659 49.3702C50.2321 49.3702 52.7892 48.311 54.6745 46.4257C54.7681 46.3321 54.8423 46.221 54.8929 46.0987C54.9436 45.9764 54.9696 45.8454 54.9696 45.713C54.9696 45.5807 54.9435 45.4496 54.8929 45.3274C54.8422 45.2051 54.768 45.094 54.6744 45.0004C54.5808 44.9068 54.4697 44.8326 54.3474 44.782C54.2251 44.7313 54.0941 44.7053 53.9617 44.7053C53.8294 44.7053 53.6983 44.7313 53.5761 44.782C53.4538 44.8327 53.3427 44.9069 53.2491 45.0005C51.7418 46.5078 49.6974 47.3546 47.5658 47.3546C45.4341 47.3546 43.3898 46.5078 41.8825 45.0005C41.6935 44.8115 41.4372 44.7053 41.1699 44.7053C40.9026 44.7053 40.6463 44.8115 40.4573 45.0005Z" fill="#2D6A4F"/>
<path d="M43.0818 27.7953C43.7846 27.7953 44.4715 27.5869 45.0558 27.1965C45.6401 26.8061 46.0955 26.2512 46.3644 25.6019C46.6333 24.9527 46.7037 24.2383 46.5666 23.5491C46.4295 22.8599 46.0911 22.2268 45.5942 21.7299C45.0973 21.233 44.4642 20.8946 43.775 20.7575C43.0858 20.6204 42.3714 20.6907 41.7222 20.9597C41.0729 21.2286 40.518 21.684 40.1276 22.2683C39.7372 22.8526 39.5288 23.5395 39.5288 24.2423C39.5299 25.1842 39.9046 26.0873 40.5707 26.7534C41.2368 27.4195 42.1399 27.7942 43.0818 27.7953ZM43.0818 22.7048C43.3859 22.7048 43.6832 22.795 43.936 22.9639C44.1888 23.1329 44.3859 23.373 44.5022 23.6539C44.6186 23.9348 44.649 24.244 44.5897 24.5422C44.5304 24.8404 44.384 25.1144 44.169 25.3294C43.954 25.5444 43.68 25.6908 43.3818 25.7501C43.0836 25.8095 42.7744 25.779 42.4935 25.6626C42.2126 25.5463 41.9725 25.3492 41.8035 25.0964C41.6346 24.8436 41.5444 24.5463 41.5444 24.2423C41.5449 23.8347 41.7071 23.4439 41.9953 23.1557C42.2835 22.8675 42.6742 22.7053 43.0818 22.7048Z" fill="#2D6A4F"/>
<path d="M52.6919 32.0619C53.4639 32.061 54.204 31.754 54.7499 31.2081C55.2958 30.6622 55.6028 29.9221 55.6037 29.1501V19.335C55.6066 18.9508 55.5334 18.5698 55.3884 18.214C55.2434 17.8582 55.0294 17.5346 54.7587 17.2618C54.4881 16.9891 54.1661 16.7727 53.8114 16.6249C53.4567 16.4772 53.0762 16.4012 52.692 16.4012C52.3078 16.4012 51.9273 16.4772 51.5726 16.6249C51.2179 16.7727 50.896 16.9891 50.6253 17.2618C50.3546 17.5346 50.1406 17.8582 49.9956 18.214C49.8506 18.5698 49.7774 18.9508 49.7804 19.335V29.1501C49.7812 29.9221 50.0882 30.6622 50.6341 31.208C51.1799 31.7539 51.92 32.061 52.6919 32.0619ZM53.588 25.5769H51.7956V22.9082H53.5877L53.588 25.5769ZM52.6919 30.0462C52.4544 30.0459 52.2266 29.9514 52.0587 29.7834C51.8907 29.6154 51.7962 29.3877 51.796 29.1501V27.5925H53.588V29.1501C53.5878 29.3877 53.4933 29.6155 53.3253 29.7835C53.1573 29.9515 52.9295 30.046 52.6919 30.0462ZM52.6919 18.4396C52.9295 18.4399 53.1573 18.5344 53.3253 18.7024C53.4933 18.8704 53.5878 19.0981 53.588 19.3357V20.8933H51.7956V19.3357C51.7957 19.098 51.8902 18.87 52.0582 18.7019C52.2263 18.5337 52.4542 18.4391 52.6919 18.4389V18.4396Z" fill="#2D6A4F"/>
</svg>
