<svg width="86" height="85" viewBox="0 0 86 85" fill="none" xmlns="http://www.w3.org/2000/svg">
<rect width="86" height="85" rx="16" fill="#CBF3E5"/>
<path d="M60.9348 44.5984H66.4777C67.4626 44.5976 68.4069 44.2107 69.1035 43.5225C69.8 42.8344 70.1919 41.9012 70.1932 40.9278V23.7485C70.1923 22.7749 69.8005 21.8414 69.104 21.1529C68.4074 20.4644 67.4629 20.0772 66.4777 20.0763H40.3502C39.4325 20.0775 38.5477 20.4141 37.8658 21.0212C37.184 21.6283 36.7533 22.4631 36.6566 23.365C34.8886 21.7375 32.6783 20.6557 30.2969 20.2524C27.9156 19.8491 25.467 20.1418 23.2516 21.0947C21.0363 22.0476 19.1507 23.6191 17.8263 25.6163C16.5019 27.6135 15.7964 29.9494 15.7964 32.3374C15.7964 34.7253 16.5019 37.0613 17.8263 39.0584C19.1507 41.0556 21.0363 42.6271 23.2516 43.58C25.467 44.5329 27.9156 44.8256 30.2969 44.4223C32.6783 44.019 34.8886 42.9372 36.6566 41.3097C36.7533 42.2116 37.184 43.0464 37.8659 43.6535C38.5477 44.2606 39.4325 44.5971 40.3502 44.5984H45.8932C46.6356 45.9028 47.7103 46.9926 49.0107 47.7594V47.8341H43.3434C41.7071 47.8358 40.1382 48.4788 38.981 49.6223C37.8238 50.7658 37.1727 52.3162 37.1706 53.9335V63.9276C37.1706 64.1918 37.2767 64.4452 37.4657 64.632C37.6547 64.8188 37.9111 64.9237 38.1784 64.9237H68.6496C68.9169 64.9237 69.1732 64.8188 69.3622 64.632C69.5512 64.4452 69.6574 64.1918 69.6574 63.9276V53.9335C69.6556 52.3164 69.0049 50.766 67.8479 49.6225C66.691 48.479 65.1224 47.8358 63.4862 47.8341H57.8122V47.7627C59.1153 46.9962 60.192 45.9051 60.9348 44.5984ZM28.2111 42.6063C26.4315 42.6071 24.6814 42.156 23.1288 41.2964C21.5761 40.4368 20.2729 39.1974 19.3441 37.697C18.4152 36.1966 17.8919 34.4856 17.8242 32.7279C17.7565 30.9702 18.1467 29.2248 18.9575 27.659C19.7683 26.0932 20.9725 24.7595 22.4545 23.7857C23.9366 22.8119 25.6468 22.2307 27.4214 22.0978C29.196 21.9649 30.9753 22.2848 32.5889 23.0267C34.2025 23.7687 35.5962 24.9079 36.6364 26.3351C41.6135 33.1392 36.6233 42.6063 28.2111 42.6063ZM40.3502 42.6063C39.8999 42.606 39.4681 42.4291 39.1497 42.1144C38.8312 41.7997 38.6523 41.3729 38.652 40.9278V38.9539C39.9357 36.9803 40.6183 34.6836 40.6183 32.3374C40.6183 29.9911 39.9357 27.6944 38.652 25.7208V23.7485C38.6522 23.3033 38.8311 22.8763 39.1495 22.5613C39.4679 22.2463 39.8997 22.069 40.3502 22.0685H66.4777C66.9284 22.069 67.3605 22.2462 67.6791 22.5611C67.9978 22.8761 68.1771 23.3031 68.1776 23.7485V40.9278C68.177 41.3731 67.9977 41.7999 67.679 42.1146C67.3603 42.4293 66.9282 42.6061 66.4777 42.6063H61.7528C61.783 42.4967 61.8099 42.3854 61.8334 42.2742C62.5799 42.1607 63.2739 41.8257 63.8234 41.3135C64.3728 40.8014 64.7518 40.1362 64.9101 39.4063C65.0684 38.6764 64.9986 37.9162 64.7098 37.2264C64.421 36.5366 63.9269 35.9499 63.2931 35.5439V32.227C63.2931 29.6395 62.2531 27.1581 60.402 25.3285C58.5509 23.4989 56.0402 22.471 53.4224 22.471C50.8045 22.471 48.2939 23.4989 46.4427 25.3285C44.5916 27.1581 43.5517 29.6395 43.5517 32.227V35.534C42.9142 35.9374 42.4162 36.5231 42.124 37.2133C41.8317 37.9034 41.7591 38.6651 41.9158 39.3971C42.0725 40.129 42.451 40.7964 43.001 41.3104C43.551 41.8244 44.2464 42.1606 44.9945 42.2742C45.0181 42.3854 45.0449 42.4967 45.0752 42.6063H40.3502ZM62.0367 40.1426V37.1228C62.3195 37.2637 62.5572 37.4795 62.7232 37.7461C62.8893 38.0127 62.9772 38.3196 62.9772 38.6327C62.9772 38.9457 62.8893 39.2526 62.7232 39.5192C62.5572 39.7858 62.3195 40.0016 62.0367 40.1426ZM44.7913 37.1228V40.1426C44.5092 40.001 44.2722 39.785 44.1067 39.5185C43.9412 39.252 43.8536 38.9454 43.8536 38.6327C43.8536 38.32 43.9412 38.0133 44.1067 37.7468C44.2722 37.4803 44.5092 37.2643 44.7913 37.1228ZM45.7252 34.7985C45.6716 34.8069 45.6188 34.8197 45.5673 34.8367V32.227C45.5673 31.2074 45.7705 30.1978 46.1653 29.2559C46.56 28.314 47.1386 27.4581 47.868 26.7372C48.5974 26.0162 49.4634 25.4444 50.4164 25.0542C51.3694 24.664 52.3908 24.4632 53.4224 24.4632C54.4539 24.4632 55.4754 24.664 56.4284 25.0542C57.3814 25.4444 58.2473 26.0162 58.9767 26.7372C59.7062 27.4581 60.2847 28.314 60.6795 29.2559C61.0743 30.1978 61.2774 31.2074 61.2774 32.227V34.9147C60.5669 34.5346 58.3145 33.1732 57.4545 30.8158C57.3955 30.6546 57.2954 30.5111 57.164 30.3993C57.0325 30.2875 56.874 30.2112 56.7039 30.1776C56.5338 30.144 56.3579 30.1544 56.193 30.2078C56.0282 30.2611 55.8801 30.3556 55.763 30.4821C53.1284 33.326 47.8651 34.4482 45.7252 34.7985ZM63.4862 49.8263C64.5879 49.8276 65.6441 50.2607 66.4232 51.0307C67.2022 51.8007 67.6404 52.8446 67.6418 53.9335V62.9315H63.4701V58.8062C63.4701 58.542 63.3639 58.2887 63.1749 58.1019C62.9859 57.9151 62.7296 57.8101 62.4623 57.8101C62.195 57.8101 61.9387 57.9151 61.7497 58.1019C61.5607 58.2887 61.4545 58.542 61.4545 58.8062V62.9315H45.3742V58.8062C45.3742 58.542 45.268 58.2887 45.079 58.1019C44.89 57.9151 44.6336 57.8101 44.3663 57.8101C44.0991 57.8101 43.8427 57.9151 43.6537 58.1019C43.4647 58.2887 43.3585 58.542 43.3585 58.8062V62.9315H39.187V53.9335C39.1884 52.8443 39.6269 51.8002 40.4063 51.0302C41.1857 50.2602 42.2423 49.8272 43.3442 49.8263H49.0115V50.3924C49.0115 51.546 49.4752 52.6523 50.3005 53.468C51.1258 54.2837 52.2451 54.742 53.4123 54.742C54.5795 54.742 55.6988 54.2837 56.5241 53.468C57.3494 52.6523 57.8131 51.546 57.8131 50.3924V49.8263H63.4862ZM51.0263 50.3924V48.626C52.5848 49.0688 54.2381 49.0688 55.7966 48.626V50.3924C55.7966 51.0176 55.5453 51.6172 55.098 52.0593C54.6507 52.5014 54.044 52.7498 53.4115 52.7498C52.7789 52.7498 52.1722 52.5014 51.7249 52.0593C51.2776 51.6172 51.0263 51.0176 51.0263 50.3924ZM53.4148 46.9658C49.918 46.9658 46.8069 44.2212 46.8069 40.3252C46.8069 36.6626 46.8022 36.8937 46.8153 36.6313C50.0571 36.0277 53.6258 34.8724 56.1829 32.813C57.067 34.3221 58.471 35.602 60.0059 36.4919C60.0271 36.8053 60.021 36.5565 60.021 40.4364C60.0189 42.1675 59.3223 43.8271 58.0838 45.0511C56.8454 46.2752 55.1663 46.9638 53.4148 46.9658Z" fill="#2D6A4F"/>
<path d="M51.1318 36.8223H48.8604C48.5931 36.8223 48.3367 36.9272 48.1477 37.114C47.9587 37.3008 47.8525 37.5542 47.8525 37.8184C47.8525 38.0825 47.9587 38.3359 48.1477 38.5227C48.3367 38.7095 48.5931 38.8145 48.8604 38.8145H48.9976C49.029 39.0543 49.1476 39.2746 49.3314 39.4342C49.5151 39.5939 49.7514 39.6819 49.9961 39.6819C50.2407 39.6819 50.477 39.5939 50.6608 39.4342C50.8445 39.2746 50.9632 39.0543 50.9946 38.8145H51.1318C51.3991 38.8145 51.6554 38.7095 51.8444 38.5227C52.0334 38.3359 52.1396 38.0825 52.1396 37.8184C52.1396 37.5542 52.0334 37.3008 51.8444 37.114C51.6554 36.9272 51.3991 36.8223 51.1318 36.8223Z" fill="#2D6A4F"/>
<path d="M58.976 37.8184C58.976 37.5542 58.8699 37.3008 58.6809 37.114C58.4919 36.9272 58.2355 36.8223 57.9682 36.8223H55.6968C55.4295 36.8223 55.1731 36.9272 54.9841 37.114C54.7951 37.3008 54.689 37.5542 54.689 37.8184C54.689 38.0825 54.7951 38.3359 54.9841 38.5227C55.1731 38.7095 55.4295 38.8145 55.6968 38.8145H55.834C55.8654 39.0543 55.984 39.2746 56.1678 39.4342C56.3516 39.5939 56.5878 39.6819 56.8325 39.6819C57.0772 39.6819 57.3134 39.5939 57.4972 39.4342C57.681 39.2746 57.7996 39.0543 57.831 38.8145H57.9682C58.2355 38.8145 58.4919 38.7095 58.6809 38.5227C58.8699 38.3359 58.976 38.0825 58.976 37.8184Z" fill="#2D6A4F"/>
<path d="M32.348 28.5298L30.0704 29.9758C29.8139 29.777 29.5263 29.6211 29.2188 29.5143V24.391C29.2188 24.1268 29.1126 23.8735 28.9236 23.6867C28.7346 23.4999 28.4783 23.3949 28.211 23.3949C27.9437 23.3949 27.6873 23.4999 27.4983 23.6867C27.3093 23.8735 27.2032 24.1268 27.2032 24.391V29.5143C26.651 29.7066 26.167 30.0528 25.8097 30.5112C25.4525 30.9696 25.2372 31.5205 25.19 32.0973C25.1428 32.674 25.2657 33.2519 25.5438 33.7611C25.8219 34.2703 26.2433 34.689 26.757 34.9665C27.2708 35.244 27.8548 35.3684 28.4386 35.3247C29.0224 35.2811 29.5808 35.0712 30.0465 34.7205C30.5121 34.3697 30.865 33.8932 31.0624 33.3484C31.2598 32.8037 31.2933 32.2141 31.1588 31.6509L33.4365 30.2066C33.5479 30.1359 33.6441 30.0443 33.7197 29.9369C33.7952 29.8295 33.8486 29.7085 33.8769 29.5807C33.9051 29.4529 33.9076 29.3208 33.8842 29.1921C33.8608 29.0633 33.812 28.9404 33.7405 28.8303C33.669 28.7202 33.5763 28.6251 33.4677 28.5504C33.359 28.4757 33.2365 28.4229 33.1072 28.395C32.9779 28.3671 32.8443 28.3646 32.7141 28.3878C32.5838 28.4109 32.4594 28.4592 32.348 28.5298ZM28.211 33.3409C28.0103 33.3409 27.8142 33.2821 27.6473 33.1719C27.4805 33.0618 27.3505 32.9052 27.2737 32.7219C27.1969 32.5387 27.1768 32.3371 27.2159 32.1426C27.2551 31.9481 27.3517 31.7694 27.4936 31.6292C27.6355 31.4889 27.8162 31.3934 28.013 31.3547C28.2098 31.316 28.4138 31.3359 28.5992 31.4118C28.7846 31.4877 28.943 31.6162 29.0545 31.7811C29.166 31.946 29.2255 32.1399 29.2255 32.3382C29.2251 32.604 29.1181 32.8589 28.928 33.0468C28.7378 33.2348 28.4799 33.3406 28.211 33.3409Z" fill="#2D6A4F"/>
</svg>
